<svg width="30" height="30" viewBox="0 0 30 30" fill="none" xmlns="http://www.w3.org/2000/svg">
<circle cx="15" cy="15" r="15" fill="#2F3538"/>
<path d="M14.987 7.5C14.8344 7.50232 14.6888 7.56526 14.5824 7.67479C14.4759 7.78445 14.4174 7.93169 14.4194 8.08448V8.69045C11.5318 8.97953 9.26318 11.4139 9.23319 14.369L9.23332 14.3688C9.23113 14.3883 9.2301 14.4078 9.22985 14.4274V16.1866C8.25797 16.3292 7.5 17.1664 7.5 18.1754C7.5 19.2832 8.41036 20.1935 9.51815 20.1935H12.1715C12.4407 21.505 13.6082 22.5 14.996 22.5C16.3837 22.5 17.5513 21.505 17.8205 20.1935H20.4738C21.5816 20.1935 22.492 19.2832 22.492 18.1754C22.492 17.1663 21.734 16.3292 20.7621 16.1866V14.4274C20.7623 14.4056 20.7612 14.3838 20.7588 14.3621C20.7253 11.4103 18.4581 8.97951 15.5726 8.69055V8.08458H15.5727C15.5747 7.92871 15.5137 7.77863 15.4034 7.66859C15.2931 7.55841 15.1429 7.49766 14.9871 7.50011L14.987 7.5ZM14.996 9.8143C17.5479 9.8143 19.609 11.8753 19.609 14.4272V16.6368C19.5772 16.8239 19.6396 17.0148 19.7756 17.147C19.7768 17.1481 19.778 17.1493 19.7791 17.1503C19.7817 17.153 19.7843 17.1556 19.787 17.1583C19.9175 17.2828 20.0987 17.339 20.2768 17.3103H20.4739C20.9576 17.3103 21.3388 17.6915 21.3388 18.1752C21.3388 18.6589 20.9576 19.0401 20.4739 19.0401H9.51819C9.03449 19.0401 8.65327 18.6589 8.65327 18.1752C8.65327 17.6915 9.03449 17.3103 9.51819 17.3103H9.70971C9.89788 17.3422 10.0898 17.279 10.2221 17.1413C10.2225 17.1409 10.2229 17.1407 10.2233 17.1403C10.2244 17.1391 10.2255 17.138 10.2266 17.1368C10.2282 17.1354 10.2296 17.1338 10.2311 17.1323C10.3556 17.0018 10.412 16.8206 10.3831 16.6424V14.4272C10.3831 11.8753 12.4441 9.81433 14.996 9.81433L14.996 9.8143ZM13.371 20.1934H16.6211C16.3847 20.8661 15.7535 21.3466 14.9961 21.3466C14.2386 21.3466 13.6073 20.8661 13.371 20.1934H13.371Z" fill="#FAFAFA"/>
</svg>
