<svg width="30" height="30" viewBox="0 0 30 30" fill="none" xmlns="http://www.w3.org/2000/svg">
<circle cx="15" cy="15" r="15" fill="#2F3538"/>
<path d="M8.40039 14.6358C8.40039 18.4758 11.4175 21.6001 15.1268 21.6001C15.596 21.6001 16.0814 21.5476 16.5689 21.4442C16.8582 21.382 17.0457 21.1003 16.9815 20.8083C16.9199 20.519 16.6354 20.3341 16.3461 20.3952C15.9319 20.4842 15.521 20.5287 15.1268 20.5287C12.0083 20.5287 9.47181 17.8849 9.47181 14.6359C9.47181 11.3868 12.0084 8.74303 15.1268 8.74303C16.9739 8.74303 18.7102 9.68913 19.7731 11.2743V11.2748C20.2017 11.9161 20.4968 12.6322 20.6522 13.3865L19.0805 12.0805C18.8528 11.8914 18.5154 11.923 18.3262 12.1507C18.1365 12.3783 18.1692 12.7158 18.3958 12.905L20.9747 15.0478C20.9924 15.0623 21.0144 15.0671 21.0337 15.0794C21.0519 15.0912 21.0648 15.1088 21.0851 15.1185C21.0894 15.1206 21.0937 15.12 21.0974 15.1217C21.1097 15.1276 21.1237 15.1303 21.1365 15.1346C21.167 15.1459 21.1976 15.1496 21.2292 15.155C21.2549 15.1597 21.2791 15.1679 21.3048 15.1684C21.3095 15.1694 21.3133 15.1716 21.317 15.1716C21.3256 15.1716 21.3325 15.1668 21.3411 15.1668C21.3711 15.1652 21.3984 15.1571 21.4279 15.1513C21.4552 15.1454 21.4831 15.1426 21.5094 15.1331C21.5212 15.1283 21.5324 15.1229 21.5437 15.1175C21.5678 15.1063 21.5882 15.0886 21.6106 15.0737C21.6348 15.0576 21.6599 15.0447 21.6813 15.0249C21.6921 15.0147 21.7006 15.0039 21.7103 14.9927C21.7156 14.9868 21.7232 14.9841 21.7284 14.9782C21.7455 14.9579 21.7531 14.9333 21.7665 14.9113C21.7761 14.8957 21.7906 14.885 21.7991 14.8685L23.3468 11.6542C23.3833 11.5791 23.4004 11.4998 23.4004 11.4221C23.4004 11.2227 23.2889 11.0315 23.0971 10.9389C22.8304 10.8108 22.5105 10.9228 22.3825 11.1896L21.6111 12.792C21.4129 12.0425 21.0979 11.3289 20.6645 10.6796C20.6645 10.6796 20.6645 10.6791 20.6641 10.6791C19.4018 8.79614 17.3319 7.67163 15.127 7.67163C11.4177 7.67163 8.40055 10.7959 8.40055 14.6359L8.40039 14.6358Z" fill="#FAFAFA"/>
</svg>
