<svg width="30" height="30" viewBox="0 0 30 30" fill="none" xmlns="http://www.w3.org/2000/svg">
<circle cx="15" cy="15" r="15" fill="#2F3538"/>
<path fill-rule="evenodd" clip-rule="evenodd" d="M19.9167 10.2776H9.91667C9.60984 10.2776 9.36111 10.5263 9.36111 10.8332V20.8332C9.36111 21.14 9.60984 21.3887 9.91667 21.3887H19.9167C20.2235 21.3887 20.4722 21.14 20.4722 20.8332V10.8332C20.4722 10.5263 20.2235 10.2776 19.9167 10.2776ZM9.91667 9.1665C8.99619 9.1665 8.25 9.9127 8.25 10.8332V20.8332C8.25 21.7536 8.99619 22.4998 9.91667 22.4998H19.9167C20.8371 22.4998 21.5833 21.7536 21.5833 20.8332V10.8332C21.5833 9.9127 20.8371 9.1665 19.9167 9.1665H9.91667Z" fill="#FAFAFA"/>
<path d="M11.0283 8.33333C11.0283 7.8731 11.4014 7.5 11.8617 7.5V7.5C12.3219 7.5 12.695 7.8731 12.695 8.33333V11.1111C12.695 11.5713 12.3219 11.9444 11.8617 11.9444V11.9444C11.4014 11.9444 11.0283 11.5713 11.0283 11.1111V8.33333Z" fill="#FAFAFA"/>
<path d="M17.1387 8.33333C17.1387 7.8731 17.5118 7.5 17.972 7.5V7.5C18.4322 7.5 18.8053 7.8731 18.8053 8.33333V11.1111C18.8053 11.5713 18.4322 11.9444 17.972 11.9444V11.9444C17.5118 11.9444 17.1387 11.5713 17.1387 11.1111V8.33333Z" fill="#FAFAFA"/>
</svg>
